<svg width="140" height="33" viewBox="0 0 140 33" fill="none" xmlns="http://www.w3.org/2000/svg">
<path d="M0.658694 1.10821C0.452852 1.218 0.219565 1.42384 0.137228 1.57479C0.0411684 1.73946 0 6.88551 0 16.9443V32.0668L0.466575 32.5334L0.93315 33H14.2031C26.3341 33 27.5005 32.9863 27.8573 32.7667C28.0768 32.6432 28.3101 32.3962 28.3925 32.2178C28.5023 31.9845 28.5434 27.3599 28.5434 16.8208V1.76691L28.2552 1.45128C28.1043 1.28661 27.8161 1.09449 27.624 1.01215C27.4319 0.943539 22.0251 0.888649 14.1619 0.888649C2.84062 0.90237 0.974319 0.929817 0.658694 1.10821ZM13.9835 15.0231L20.3235 26.0014L19.2531 27.854C18.663 28.8694 18.1278 29.7065 18.0455 29.7065C17.9083 29.7065 3.40325 4.62125 3.32092 4.25073C3.27975 4.07234 3.59537 4.04489 5.46167 4.04489H7.65732L13.9835 15.0231ZM25.0853 4.26446L25.3872 4.4703V16.9032C25.3872 28.2794 25.3735 29.3635 25.1539 29.5967C24.9618 29.8026 24.7148 29.8438 23.4523 29.8438C22.08 29.8438 21.9565 29.8163 21.7644 29.5419C21.5722 29.2674 21.5448 27.8402 21.5448 16.9169C21.5448 2.45305 21.3115 4.04489 23.4385 4.04489C24.4266 4.04489 24.852 4.09978 25.0853 4.26446ZM3.2523 23.2843C3.23858 26.7012 3.22486 23.943 3.22486 17.1502C3.22486 10.3574 3.23858 7.55793 3.2523 10.9337C3.27975 14.2958 3.27975 19.8536 3.2523 23.2843ZM6.51833 11.1121C6.71045 11.2905 6.8614 11.6062 6.8614 11.7983C6.8614 11.9904 6.71045 12.306 6.51833 12.4844C6.21643 12.8 6.0792 12.8275 4.94021 12.8275C3.95217 12.8275 3.70516 12.7863 3.70516 12.6216C3.70516 12.4707 3.96589 12.4158 4.98138 12.3884L6.24387 12.3472V11.7983V11.2494L5.02254 11.1807C4.2129 11.1396 3.77377 11.0572 3.7326 10.9337C3.69143 10.8102 3.99333 10.7691 4.94021 10.7691C6.0792 10.7691 6.21643 10.7965 6.51833 11.1121ZM7.39659 20.7593C7.42403 28.3754 7.39659 29.6791 7.23192 29.83C6.98491 30.0359 3.26603 29.981 3.19741 29.7751C3.16997 29.6928 3.85611 29.6516 5.14605 29.6791L7.13586 29.7203V20.7181C7.13586 15.5858 7.19075 11.7434 7.25936 11.7846C7.32798 11.8257 7.38287 15.8328 7.39659 20.7593ZM6.683 13.5685C6.64184 13.692 6.3811 13.7881 6.0792 13.8155C5.58518 13.8567 5.55773 13.8841 5.51657 14.3644L5.4754 14.8859H6.09292C6.5595 14.8859 6.72417 14.9408 6.72417 15.0917C6.72417 15.2564 6.46344 15.2976 5.21466 15.2976H3.70516V14.584C3.70516 14.1174 3.78749 13.7881 3.93844 13.6234C4.18545 13.349 4.87159 13.2941 5.00882 13.5273C5.06371 13.6097 5.20094 13.6234 5.33817 13.5685C5.5989 13.4587 6.62811 13.2803 6.71045 13.3352C6.73789 13.349 6.72417 13.4587 6.683 13.5685ZM6.46344 16.2445C7.35542 17.1364 6.64184 18.3166 5.21466 18.3166C4.00706 18.3166 3.30719 17.4383 3.77377 16.5326C4.04823 16.0112 4.37757 15.8602 5.32445 15.8602C5.9557 15.8465 6.12037 15.9014 6.46344 16.2445ZM4.11684 19.0027V19.4144H5.42051C6.49088 19.4144 6.72417 19.4556 6.72417 19.6203C6.72417 19.7849 6.49088 19.8261 5.42051 19.8261H4.11684V20.2515C4.11684 20.526 4.06195 20.6495 3.95217 20.622C3.82866 20.5809 3.76005 20.2104 3.7326 19.5791C3.70516 18.7557 3.7326 18.5911 3.911 18.5911C4.04823 18.5911 4.11684 18.7283 4.11684 19.0027ZM6.72417 21.1298C6.72417 21.2945 6.46344 21.3356 5.21466 21.3356C3.96589 21.3356 3.70516 21.2945 3.70516 21.1298C3.70516 20.9651 3.96589 20.9239 5.21466 20.9239C6.46344 20.9239 6.72417 20.9651 6.72417 21.1298ZM6.18898 22.0355C6.95746 22.4334 7.0398 23.5862 6.35366 24.039C5.79102 24.4095 4.50108 24.3684 4.06195 23.9567C2.79945 22.7765 4.56969 21.1572 6.18898 22.0355ZM6.72417 24.9722C6.72417 25.0957 6.51833 25.178 6.14781 25.2054C5.57146 25.2466 5.55773 25.2603 5.51657 25.7544L5.4754 26.2758H6.09292C6.5595 26.2758 6.72417 26.3307 6.72417 26.4817C6.72417 26.6463 6.46344 26.6875 5.21466 26.6875H3.70516V25.9739C3.70516 24.9173 3.85611 24.8212 5.42051 24.8075C6.42227 24.7938 6.72417 24.8349 6.72417 24.9722ZM4.66575 27.3737C4.66575 27.4423 4.55597 27.5658 4.40502 27.6344C4.08939 27.8128 3.97961 28.1696 4.13056 28.5675C4.36385 29.2125 5.98314 29.2262 6.32621 28.5813C6.51833 28.2245 6.31249 27.703 5.91453 27.5795C5.54401 27.4697 5.54401 27.2364 5.9008 27.2364C6.28504 27.2364 6.8614 27.8402 6.8614 28.2382C6.8614 29.4183 4.76181 29.9673 3.911 29.0204C3.54048 28.6087 3.56793 27.8128 3.96589 27.4972C4.30896 27.2227 4.66575 27.1541 4.66575 27.3737Z" fill="white"/>
<path d="M4.21291 13.8704C4.15802 13.9253 4.11685 14.1723 4.11685 14.433C4.11685 14.8584 4.1443 14.8859 4.61087 14.8859C5.09117 14.8859 5.09117 14.8721 5.05 14.3644C5.00883 13.939 4.95394 13.8567 4.66576 13.8155C4.47364 13.788 4.2678 13.8155 4.21291 13.8704Z" fill="white"/>
<path d="M4.25406 16.5601C3.89727 16.9444 3.91099 17.1639 4.32267 17.5619C4.98137 18.2343 6.43598 17.8775 6.44971 17.0404C6.44971 16.2857 4.84414 15.9289 4.25406 16.5601Z" fill="white"/>
<path d="M4.56969 22.3649C3.38953 22.8726 4.26779 24.1763 5.61263 23.8744C6.57322 23.6685 6.71045 22.7217 5.83219 22.3511C5.25583 22.1179 5.13233 22.1179 4.56969 22.3649Z" fill="white"/>
<path d="M4.21291 25.2604C4.15802 25.3153 4.11685 25.5623 4.11685 25.823C4.11685 26.2484 4.1443 26.2759 4.61087 26.2759C5.09117 26.2759 5.09117 26.2622 5.05 25.7544C5.00883 25.329 4.95394 25.2467 4.66576 25.2055C4.47364 25.1781 4.2678 25.2055 4.21291 25.2604Z" fill="white"/>
<path d="M36.4752 4.30559C35.0343 4.77217 33.7992 5.74648 33.017 7.05015C31.288 9.90449 31.3566 14.7212 33.168 17.4658C34.0737 18.8106 35.4734 19.7712 37.0653 20.1143C38.1356 20.3475 40.2627 20.2103 41.2095 19.8398C43.0621 19.1125 44.3383 17.5206 44.6402 15.5308L44.7226 15.0231H43.7071H42.7053L42.6093 15.5583C42.5544 15.8602 42.3211 16.4228 42.0878 16.8345C41.7173 17.4383 41.4977 17.6442 40.743 18.0284C39.947 18.4264 39.6863 18.4812 38.8218 18.4812C38.2591 18.495 37.5593 18.4264 37.2437 18.3303C35.8714 17.9598 34.6912 16.6973 34.1423 15.0094C33.8953 14.2821 33.8541 13.8018 33.8541 12.1413C33.8541 9.8496 34.0737 8.90273 34.9245 7.66768C36.928 4.75844 41.731 5.22502 42.5818 8.39498L42.7328 8.98506H43.7208H44.6951L44.5854 8.38126C44.2286 6.48752 42.7739 4.93684 40.743 4.30559C39.6314 3.96252 37.5593 3.96252 36.4752 4.30559Z" fill="white"/>
<path d="M67.0496 4.19584C66.0478 4.44285 64.6618 5.27994 63.8934 6.11703C62.4525 7.68143 61.8349 9.46539 61.8349 12.1413C61.8349 14.8859 62.4799 16.6973 63.9894 18.2343C65.348 19.6203 66.8575 20.2378 68.8885 20.2378C70.9057 20.2378 72.4289 19.6203 73.76 18.2617C75.2558 16.7385 75.9282 14.8585 75.9282 12.1413C75.942 8.53224 74.5971 6.00725 71.9624 4.70358C70.8096 4.14095 70.7685 4.12723 69.1904 4.08606C68.3121 4.07233 67.3515 4.1135 67.0496 4.19584ZM70.4254 5.96608C71.2625 6.19937 72.2094 6.95412 72.8269 7.85983C73.6914 9.13605 73.8835 9.94569 73.8973 12.1413C73.8973 13.7195 73.8561 14.1311 73.5816 14.9133C72.7034 17.4521 70.5489 18.8518 68.12 18.4538C66.6105 18.2068 65.3754 17.3011 64.6069 15.8877C63.5503 13.9528 63.5366 10.4672 64.5795 8.42246C64.9637 7.64026 65.8969 6.65222 66.5419 6.32287C67.6808 5.71907 69.108 5.59557 70.4254 5.96608Z" fill="white"/>
<path d="M101.247 4.36055C98.9002 5.1702 97.2535 7.10511 96.6634 9.78106C96.3478 11.1808 96.4576 14.0489 96.8555 15.3113C97.4044 16.9718 98.7767 18.7146 100.176 19.4694C101.562 20.2241 103.786 20.4574 105.46 20.032C107.655 19.4556 109.494 17.5207 110.276 14.9408C110.633 13.7881 110.633 10.4946 110.276 9.34193C109.714 7.46191 108.438 5.70539 107.065 4.90947C105.501 3.99004 103.031 3.75675 101.247 4.36055ZM105.624 6.2543C107.038 6.92672 108.012 8.28528 108.396 10.0555C108.589 10.9887 108.589 13.2941 108.396 14.2272C107.916 16.519 106.379 18.1108 104.321 18.4401C102.084 18.7969 100.08 17.6854 99.0649 15.5309C98.2141 13.6783 98.2141 10.6182 99.0786 8.75185C100.314 6.08963 103.099 5.03297 105.624 6.2543Z" fill="white"/>
<path d="M47.4809 12.1277V19.9634H48.4415H49.4021V16.6013V13.2392H51.433C53.6424 13.2392 54.1913 13.3353 54.8912 13.8567C55.742 14.488 56.0988 15.1192 56.9084 17.5756L57.7044 19.9634H58.761H59.8039L58.9943 17.6305C57.869 14.3645 57.4573 13.6509 56.4144 13.102C55.9753 12.8824 55.9478 12.8412 56.1948 12.7589C57.5808 12.2923 58.3082 11.7434 58.8433 10.7142C59.1727 10.0967 59.2139 9.8634 59.2139 8.64207C59.2139 7.42074 59.1727 7.18745 58.8296 6.48759C58.4042 5.60933 57.6357 4.8683 56.8535 4.59384C56.4693 4.45662 55.1794 4.388 51.9133 4.36056L47.4809 4.30567V12.1277ZM55.5087 6.11707C56.7026 6.44642 57.4848 7.76381 57.2927 9.13609C57.1692 10.0418 56.7438 10.6319 55.9204 11.0436C55.2617 11.3729 55.1107 11.3866 52.325 11.4278L49.4021 11.4827V8.72441V5.96612H52.1878C53.7796 5.96612 55.1931 6.03474 55.5087 6.11707Z" fill="white"/>
<path d="M78.9061 12.1414V19.9634H79.8667H80.8273V12.1414V4.31939H79.8667H78.9061V12.1414Z" fill="white"/>
<path d="M83.1602 5.21137V6.10335H85.6303H88.1004V13.0334V19.9634H89.061H90.0216V13.0334V6.10335H92.4917H94.9618V5.21137V4.31939H89.061H83.1602V5.21137Z" fill="white"/>
<path d="M113.213 12.1277V19.9634H114.242H115.285L115.272 16.6287L115.258 13.3078L117.083 13.2667C119.416 13.2118 120.129 13.3627 120.967 14.09C121.749 14.7899 121.927 15.133 122.805 17.7952L123.533 19.9634H124.548C125.111 19.9634 125.564 19.9085 125.564 19.8536C125.564 19.634 124.013 15.3525 123.752 14.8173C123.313 13.9665 122.929 13.5137 122.339 13.1706C121.872 12.8824 121.831 12.8275 122.064 12.7589C123.368 12.3335 124.219 11.6199 124.754 10.5221C125.001 10.0143 125.056 9.64383 125.07 8.71068C125.07 6.77577 124.37 5.44466 122.984 4.77224L122.202 4.388L117.714 4.34683L113.213 4.30567V12.1277ZM121.502 6.21313C121.955 6.36409 122.311 6.62482 122.6 6.96789C122.997 7.47563 123.025 7.57169 123.025 8.69696C123.025 9.79478 122.997 9.94574 122.654 10.3849C121.996 11.2631 121.392 11.3866 118.126 11.3866C116.548 11.3866 115.272 11.3455 115.272 11.2768C115.272 11.222 115.272 10.0006 115.272 8.57346V5.96612H118.057C120.308 5.97985 120.953 6.02102 121.502 6.21313Z" fill="white"/>
<path d="M128.308 9.65748C128.308 16.3679 128.445 17.2736 129.626 18.591C130.806 19.8947 132.041 20.3064 134.483 20.2103C137.502 20.0868 138.998 19.0164 139.643 16.5326C139.835 15.7916 139.876 14.6937 139.931 9.9731L140 4.31931H138.985H137.983L138.024 8.53221C138.065 12.7177 137.928 15.2975 137.64 16.2993C137.159 17.946 135.032 18.8243 132.837 18.2617C131.67 17.9598 131.066 17.4658 130.641 16.4503L130.298 15.6406L130.257 9.9731L130.216 4.31931H129.255H128.308V9.65748Z" fill="white"/>
<path d="M31.4252 24.6292V27.3737L32.0153 27.3874C32.3309 27.3874 32.9073 27.4012 33.3052 27.4149C33.8267 27.4423 34.0737 27.3737 34.307 27.1679C35.2813 26.3033 35.199 24.1351 34.1835 23.6137C33.662 23.3392 32.9347 23.3392 32.5779 23.5999C32.4407 23.7097 32.276 23.8058 32.2211 23.8058C32.1525 23.8058 32.1113 23.3667 32.1113 22.8452C32.1113 21.912 32.0976 21.8846 31.7683 21.8846H31.4252V24.6292ZM33.9776 24.2312C34.3344 24.6292 34.3482 26.0563 33.9914 26.5915C33.7032 27.0306 33.0033 27.0993 32.4544 26.7425C32.1388 26.5366 32.1113 26.4268 32.1113 25.5623C32.1113 24.7389 32.1525 24.5743 32.4544 24.2861C32.8798 23.847 33.6071 23.8195 33.9776 24.2312Z" fill="white"/>
<path d="M44.7363 22.0766C44.7363 22.3785 45.4087 22.8451 45.8342 22.8451C46.2596 22.8451 46.932 22.3785 46.932 22.0766C46.932 21.8022 46.6164 21.8433 46.3419 22.159C46.2184 22.3099 45.9851 22.4334 45.8342 22.4334C45.6832 22.4334 45.4499 22.3099 45.3264 22.159C45.052 21.8433 44.7363 21.8022 44.7363 22.0766Z" fill="white"/>
<path d="M51.3233 22.0766C51.3233 22.3785 51.9957 22.8451 52.4211 22.8451C52.8465 22.8451 53.5189 22.3785 53.5189 22.0766C53.5189 21.8022 53.2033 21.8433 52.9288 22.159C52.8053 22.3099 52.5858 22.4334 52.4485 22.4334C52.2976 22.4334 52.078 22.3099 51.9408 22.159C51.6526 21.8433 51.3233 21.8022 51.3233 22.0766Z" fill="white"/>
<path d="M57.8279 22.0766C57.6907 22.4334 57.8828 22.7353 58.2121 22.6804C58.4454 22.653 58.5277 22.5432 58.5277 22.2962C58.5277 22.0492 58.4454 21.9394 58.2121 21.9119C58.0337 21.8845 57.8691 21.9531 57.8279 22.0766Z" fill="white"/>
<path d="M59.6805 21.9394C59.5844 22.4609 59.653 22.6393 59.9686 22.6393C60.2431 22.6393 60.3117 22.5707 60.3117 22.2962C60.3117 22.0492 60.2294 21.9394 60.0098 21.912C59.8314 21.8845 59.6942 21.8983 59.6805 21.9394Z" fill="white"/>
<path d="M63.5366 22.2962C63.5366 22.6393 63.5915 22.7079 63.8796 22.7079C64.1678 22.7079 64.2227 22.6393 64.2227 22.2962C64.2227 21.9531 64.1678 21.8845 63.8796 21.8845C63.5915 21.8845 63.5366 21.9531 63.5366 22.2962Z" fill="white"/>
<path d="M71.9075 24.6291V27.3737H72.2505H72.5936V24.6291V21.8845H72.2505H71.9075V24.6291Z" fill="white"/>
<path d="M73.6914 22.2962C73.6914 22.6393 73.7463 22.7079 74.0345 22.7079C74.3227 22.7079 74.3776 22.6393 74.3776 22.2962C74.3776 21.9531 74.3227 21.8845 74.0345 21.8845C73.7463 21.8845 73.6914 21.9531 73.6914 22.2962Z" fill="white"/>
<path d="M89.061 22.7765C89.061 23.5999 89.0335 23.6822 88.8277 23.5861C88.6904 23.5312 88.3062 23.4626 87.9631 23.4215C87.4691 23.3803 87.2633 23.4352 86.9477 23.6822C85.891 24.5193 85.9322 26.7561 87.0163 27.305C87.524 27.5795 88.2376 27.5657 88.6493 27.2776C88.8826 27.1129 88.9924 27.0992 89.0335 27.209C89.061 27.305 89.2394 27.3736 89.4178 27.3736H89.7471L89.7197 24.6565C89.6785 21.9668 89.6785 21.9531 89.3766 21.912C89.0747 21.8708 89.061 21.912 89.061 22.7765ZM88.7591 24.1625C89.0198 24.3409 89.061 24.4918 89.061 25.3289C89.061 26.1935 89.0198 26.317 88.7042 26.6189C88.2376 27.0443 87.5515 27.0717 87.2084 26.6875C86.8104 26.2484 86.7693 24.9584 87.1261 24.3821C87.3593 24.0115 87.4966 23.9429 87.9357 23.9429C88.2102 23.9429 88.5944 24.039 88.7591 24.1625Z" fill="white"/>
<path d="M99.2158 22.2962C99.2158 22.6393 99.2707 22.7079 99.5589 22.7079C99.8471 22.7079 99.902 22.6393 99.902 22.2962C99.902 21.9531 99.8471 21.8845 99.5589 21.8845C99.2707 21.8845 99.2158 21.9531 99.2158 22.2962Z" fill="white"/>
<path d="M48.7159 22.9001C48.7159 23.2431 48.6473 23.3804 48.4415 23.4353C48.2905 23.4764 48.167 23.5999 48.167 23.7234C48.167 23.8469 48.2768 23.943 48.4415 23.943C48.7022 23.943 48.7159 24.0391 48.7159 25.5211C48.7159 27.0306 48.7297 27.0992 49.0453 27.3051C49.4707 27.5795 50.1431 27.5246 50.198 27.209C50.2254 27.0443 50.1294 26.9757 49.8549 26.9346L49.4707 26.8934L49.4295 25.4113L49.3884 23.943H49.7451C50.2117 23.943 50.1706 23.4901 49.704 23.4215C49.457 23.3804 49.4021 23.2843 49.4021 22.9001C49.4021 22.4884 49.3609 22.4335 49.059 22.4335C48.7571 22.4335 48.7159 22.4884 48.7159 22.9001Z" fill="white"/>
<path d="M65.4578 22.9C65.4578 23.2431 65.3891 23.3803 65.1833 23.4352C65.0323 23.4764 64.9088 23.5999 64.9088 23.7234C64.9088 23.8469 65.0186 23.943 65.1833 23.943C65.444 23.943 65.4578 24.039 65.4578 25.5211C65.4578 27.0306 65.4715 27.0992 65.7871 27.305C66.1988 27.5795 66.8986 27.5246 66.8986 27.2364C66.8986 27.1266 66.7477 27.0031 66.5556 26.962C66.2125 26.8934 66.2125 26.8659 66.1713 25.4113L66.1302 23.943H66.487C66.9535 23.943 66.9124 23.4901 66.4458 23.4215C66.1988 23.3803 66.1439 23.2843 66.1439 22.9C66.1439 22.4883 66.1027 22.4335 65.8008 22.4335C65.4989 22.4335 65.4578 22.4883 65.4578 22.9Z" fill="white"/>
<path d="M35.8714 23.5999C35.8302 23.7097 35.8165 24.4781 35.844 25.3152C35.8851 26.7973 35.8989 26.8659 36.2694 27.1815C36.7634 27.6069 37.5593 27.6207 38.0671 27.2227C38.3552 26.9894 38.4238 26.9757 38.4238 27.1541C38.4238 27.2913 38.5474 27.3737 38.7669 27.3737H39.11V25.3701C39.11 23.3803 39.11 23.3803 38.8081 23.4215C38.5062 23.4627 38.4925 23.5313 38.4513 24.931C38.4101 26.3307 38.3964 26.4131 38.0533 26.6875C37.5868 27.058 36.983 27.0443 36.7222 26.6601C36.5575 26.4268 36.5027 25.9877 36.5027 24.8761C36.5027 23.4764 36.4889 23.394 36.2282 23.394C36.0772 23.394 35.9126 23.4901 35.8714 23.5999Z" fill="white"/>
<path d="M40.8802 23.6273C40.2215 24.039 39.9883 24.684 40.0569 25.9739C40.0706 26.2621 40.2215 26.5777 40.5234 26.9071C40.9077 27.3325 41.0998 27.4148 41.6624 27.4697C42.6368 27.5658 43.5013 27.0718 43.5013 26.4268C43.5013 26.1386 42.9249 26.2758 42.6505 26.6189C42.3211 27.0443 41.6213 27.0855 41.1547 26.7012C40.8665 26.4679 40.8253 26.317 40.8253 25.4799C40.8253 24.2997 41.0724 23.943 41.8683 23.943C42.3486 23.943 42.8152 24.2174 42.8152 24.5056C42.8152 24.5742 42.9661 24.6291 43.1582 24.6291C43.5287 24.6291 43.5836 24.4919 43.3641 24.0665C43.021 23.4352 41.5938 23.1745 40.8802 23.6273Z" fill="white"/>
<path d="M44.654 23.6548C44.4207 23.792 44.1874 24.039 44.1463 24.2037C44.0914 24.437 44.1325 24.4919 44.4482 24.4919C44.654 24.4919 44.8736 24.3821 44.9833 24.2174C45.1068 24.0116 45.299 23.9429 45.8067 23.9429C46.5615 23.9429 46.7948 24.1076 46.7948 24.6565C46.7948 25.027 46.7673 25.0408 46.1498 25.0408C44.7226 25.0408 43.9953 25.4936 43.9953 26.3719C43.9953 27.3462 45.2578 27.8539 46.3145 27.2913C46.5752 27.1541 46.7399 27.1404 46.7673 27.2227C46.7948 27.305 46.9731 27.3736 47.1515 27.3736C47.4809 27.3736 47.4809 27.3736 47.4809 25.8641C47.4809 24.2311 47.3574 23.7783 46.8359 23.545C46.3007 23.298 45.1343 23.3666 44.654 23.6548ZM46.7948 26.0014C46.7948 26.4679 46.7399 26.5777 46.3831 26.7561C45.9028 27.0031 45.1343 27.0306 44.901 26.7973C44.6677 26.564 44.6952 26.07 44.9833 25.8367C45.2578 25.576 45.5871 25.4936 46.287 25.4662C46.7948 25.4524 46.7948 25.4524 46.7948 26.0014Z" fill="white"/>
<path d="M51.2409 23.6548C51.0076 23.7921 50.7743 24.0391 50.7332 24.2037C50.6783 24.437 50.7195 24.4919 51.0351 24.4919C51.2409 24.4919 51.4605 24.3821 51.5703 24.2175C51.6938 24.0116 51.8859 23.943 52.3936 23.943C53.1484 23.943 53.3817 24.1077 53.3817 24.6566C53.3817 25.0271 53.3542 25.0408 52.7367 25.0408C51.3233 25.0408 50.6234 25.4662 50.5959 26.3582C50.5685 27.3463 51.7075 27.8128 52.9014 27.3188C53.1621 27.209 53.3817 27.1679 53.3817 27.2502C53.3817 27.3188 53.5326 27.3737 53.7247 27.3737H54.0678V25.8642C54.0678 24.2312 53.9443 23.7783 53.4228 23.545C52.8877 23.298 51.7212 23.3666 51.2409 23.6548ZM53.3817 26.0014C53.3817 26.468 53.3268 26.5778 52.97 26.7562C52.4897 27.0032 51.7212 27.0306 51.4879 26.7973C51.2546 26.5641 51.2821 26.07 51.5703 25.8368C51.8447 25.576 52.1741 25.4937 52.8739 25.4662C53.3817 25.4525 53.3817 25.4525 53.3817 26.0014Z" fill="white"/>
<path d="M55.2617 23.4901C55.2068 23.5313 55.1656 24.437 55.1656 25.4799V27.3737H55.5087C55.8518 27.3737 55.8518 27.3737 55.8518 26.0288C55.8518 24.4644 55.9616 24.2174 56.7575 24.0939C57.1692 24.0253 57.3064 23.943 57.3339 23.6959C57.375 23.4489 57.3201 23.394 56.9771 23.394C56.7575 23.394 56.4144 23.5176 56.2086 23.6822L55.8518 23.9567V23.6822C55.8518 23.4078 55.4676 23.2705 55.2617 23.4901Z" fill="white"/>
<path d="M57.869 23.4764C57.8141 23.5313 57.773 24.437 57.773 25.4799V27.3737H58.1847H58.6101L58.5689 25.4113C58.5277 23.5724 58.514 23.4627 58.2533 23.4215C58.0886 23.394 57.9239 23.4215 57.869 23.4764Z" fill="white"/>
<path d="M59.6942 23.4215C59.6942 23.4489 59.6667 24.3409 59.653 25.425L59.6255 27.3737H60.0098H60.394L60.3529 25.4113C60.3117 23.5038 60.298 23.4627 60.0098 23.4215C59.8314 23.394 59.6942 23.394 59.6942 23.4215Z" fill="white"/>
<path d="M63.5366 25.3839V27.3737H63.8796H64.2227V25.3839V23.394H63.8796H63.5366V25.3839Z" fill="white"/>
<path d="M67.9827 23.6548C67.4338 23.9841 67.2691 24.4919 67.7083 24.4919C67.8867 24.4919 68.1337 24.3683 68.2709 24.2174C68.4493 24.0116 68.6963 23.9429 69.1766 23.9429C69.8765 23.9429 70.1235 24.1488 70.1235 24.7526C70.1235 24.9996 70.0412 25.0408 69.4785 25.0408C68.0513 25.0408 67.324 25.4936 67.324 26.3719C67.324 27.3462 68.5865 27.8539 69.6432 27.2913C69.9039 27.1541 70.0686 27.1404 70.096 27.2227C70.1235 27.305 70.3019 27.3736 70.4803 27.3736C70.8096 27.3736 70.8096 27.3736 70.8096 25.8641C70.8096 24.2311 70.6861 23.7783 70.1647 23.545C69.6295 23.298 68.463 23.3666 67.9827 23.6548ZM70.1235 25.8916C70.1235 26.1386 70.0686 26.413 70.0137 26.4954C69.7255 26.9345 68.5591 27.1266 68.2297 26.7973C67.9965 26.564 68.0239 26.07 68.3121 25.8367C68.5865 25.576 68.9159 25.4936 69.6157 25.4662C70.096 25.4524 70.1235 25.4662 70.1235 25.8916Z" fill="white"/>
<path d="M73.7875 23.4901C73.7326 23.5313 73.6914 24.437 73.6914 25.4799V27.3737H74.0345H74.3776V25.3839C74.3776 23.545 74.3639 23.394 74.1306 23.394C73.9933 23.394 73.8287 23.4352 73.7875 23.4901Z" fill="white"/>
<path d="M76.0929 23.5587C75.7498 23.7371 75.4754 24.0802 75.4754 24.3135C75.4754 24.5879 76.0792 24.5193 76.2713 24.2174C76.3948 24.0116 76.5869 23.943 77.0947 23.943C77.8494 23.943 78.0827 24.1076 78.0827 24.6565C78.0827 25.0271 78.0553 25.0408 77.3966 25.0408C76.6007 25.0408 75.6675 25.3838 75.4754 25.7406C75.3244 26.0151 75.297 26.564 75.4205 26.8934C75.6401 27.456 76.9163 27.6893 77.671 27.305C77.9043 27.1815 78.0827 27.1541 78.0827 27.2364C78.0827 27.305 78.2474 27.3737 78.467 27.3737H78.8375L78.7963 25.9053C78.7551 24.0253 78.714 23.8606 78.2199 23.5999C77.7534 23.3666 76.4909 23.3392 76.0929 23.5587ZM78.0827 25.9877C78.0827 26.3993 78.0141 26.564 77.7396 26.7424C77.328 27.0169 76.3948 27.0306 76.1615 26.7699C75.6949 26.2072 76.5046 25.4525 77.575 25.4525C78.069 25.4525 78.0827 25.4662 78.0827 25.9877Z" fill="white"/>
<path d="M79.9628 23.4764C79.9079 23.5313 79.8667 24.437 79.8667 25.4799V27.3737H80.2921H80.7038L80.6763 25.9739C80.6489 24.6154 80.6626 24.5742 81.0194 24.2586C81.4448 23.9018 82.0898 23.8469 82.3368 24.1488C82.4466 24.286 82.5015 24.8487 82.4878 25.8641L82.4603 27.3737H82.8857H83.2974V26.0974C83.2974 24.6154 83.1327 23.8881 82.7073 23.5999C82.3368 23.3392 81.5546 23.3392 81.1018 23.5999C80.6763 23.8469 80.5391 23.8469 80.594 23.6411C80.6215 23.4489 80.1137 23.3254 79.9628 23.4764Z" fill="white"/>
<path d="M91.4213 23.6685C90.2274 24.3958 90.3097 26.6463 91.5311 27.2776C91.8741 27.456 92.2172 27.5109 92.7524 27.4697C93.3836 27.4285 93.562 27.3462 93.8914 26.9757C94.0972 26.7424 94.2756 26.4816 94.2756 26.413C94.2756 26.1523 93.6855 26.2758 93.3699 26.6189C92.7249 27.3187 91.5722 26.9482 91.3252 25.9602L91.2292 25.5897H92.8347H94.4403L94.3442 25.0819C94.207 24.3272 93.9051 23.8331 93.4523 23.5999C92.8896 23.3117 91.9702 23.3391 91.4213 23.6685ZM93.3013 24.2997C93.809 24.9447 93.713 25.0408 92.4368 25.0408C91.3664 25.0408 91.284 25.027 91.3527 24.78C91.5722 23.9155 92.7661 23.6273 93.3013 24.2997Z" fill="white"/>
<path d="M95.4695 23.6822C95.2774 23.8606 95.0716 24.1762 95.0167 24.3821C94.9069 24.8761 95.4146 25.3838 96.2105 25.5897C97.2946 25.8641 97.5691 26.0151 97.5691 26.3307C97.5691 26.7698 97.3084 26.962 96.7046 26.962C96.087 26.962 95.6479 26.7561 95.6479 26.4817C95.6479 26.3582 95.5107 26.2758 95.3048 26.2758C94.8657 26.2758 94.8657 26.5503 95.2911 27.058C95.593 27.4148 95.7028 27.4423 96.5811 27.4423C97.4181 27.4423 97.5965 27.4011 97.8984 27.1129C98.1592 26.8659 98.2552 26.6326 98.2552 26.2621C98.2552 25.6171 97.9945 25.4113 96.732 25.0408C96.2243 24.8898 95.7851 24.6703 95.7302 24.5605C95.5107 23.9841 96.979 23.6685 97.3221 24.2174C97.5417 24.5742 98.118 24.5879 98.118 24.2448C98.118 23.7645 97.6103 23.4764 96.6908 23.4215C95.9361 23.3666 95.7851 23.4078 95.4695 23.6822Z" fill="white"/>
<path d="M99.2158 25.3701V27.3737H99.5589H99.9157L99.8745 25.4113C99.8333 23.5038 99.8196 23.4627 99.5314 23.4215C99.2158 23.3803 99.2158 23.3803 99.2158 25.3701Z" fill="white"/>
<path d="M101.48 23.6959C100.437 24.5193 100.492 26.7561 101.562 27.305C102.056 27.5658 102.797 27.5658 103.141 27.305C103.278 27.1953 103.456 27.0992 103.511 27.0992C103.703 27.0992 103.456 27.9775 103.182 28.2519C102.825 28.6361 102.002 28.6224 101.686 28.2245C101.439 27.9226 100.863 27.7991 100.863 28.0461C100.863 28.6224 101.521 29.0204 102.468 29.0204C103.278 29.0204 103.964 28.6361 104.115 28.101C104.183 27.8951 104.225 26.7561 104.225 25.5897C104.225 23.6273 104.211 23.4627 103.964 23.4215C103.827 23.394 103.662 23.4352 103.607 23.5313C103.525 23.6548 103.429 23.6548 103.223 23.545C102.743 23.298 101.906 23.3666 101.48 23.6959ZM103.305 24.1625C103.566 24.3409 103.607 24.4919 103.607 25.329C103.607 26.1935 103.566 26.317 103.25 26.6189C102.784 27.0443 102.098 27.0717 101.755 26.6875C101.357 26.2484 101.315 24.9584 101.672 24.3821C101.906 24.0116 102.043 23.9429 102.482 23.9429C102.756 23.9429 103.141 24.039 103.305 24.1625Z" fill="white"/>
<path d="M105.391 25.3839V27.3737H105.734H106.077V25.9465C106.077 24.5605 106.091 24.5056 106.434 24.2311C106.873 23.8881 107.477 23.8606 107.779 24.1625C107.957 24.3272 107.998 24.6977 107.998 25.8779V27.3737H108.355H108.712L108.657 25.7132C108.616 24.0939 108.602 24.0527 108.232 23.7234C107.751 23.3117 106.942 23.2843 106.448 23.6685C106.105 23.943 106.105 23.943 106.036 23.6685C105.995 23.5038 105.844 23.394 105.679 23.394C105.405 23.394 105.391 23.4627 105.391 25.3839Z" fill="white"/>
</svg>
