<svg width="24" height="24" viewBox="0 0 24 24" fill="none" xmlns="http://www.w3.org/2000/svg">
<path d="M4.33333 7.66667C5.06971 7.66667 5.66667 7.06971 5.66667 6.33333C5.66667 5.59695 5.06971 5 4.33333 5C3.59695 5 3 5.59695 3 6.33333C3 7.06971 3.59695 7.66667 4.33333 7.66667Z" fill="white"/>
<path d="M4.33333 13.0002C5.06971 13.0002 5.66667 12.4032 5.66667 11.6668C5.66667 10.9304 5.06971 10.3335 4.33333 10.3335C3.59695 10.3335 3 10.9304 3 11.6668C3 12.4032 3.59695 13.0002 4.33333 13.0002Z" fill="white"/>
<path d="M4.33333 18.3337C5.06971 18.3337 5.66667 17.7367 5.66667 17.0003C5.66667 16.2639 5.06971 15.667 4.33333 15.667C3.59695 15.667 3 16.2639 3 17.0003C3 17.7367 3.59695 18.3337 4.33333 18.3337Z" fill="white"/>
<path d="M22.473 6.22038C22.473 6.04357 22.4028 5.874 22.2778 5.74897C22.1527 5.62395 21.9832 5.55371 21.8064 5.55371H7.52637V6.88704H21.8064C21.9832 6.88704 22.1527 6.81681 22.2778 6.69178C22.4028 6.56676 22.473 6.39719 22.473 6.22038Z" fill="white"/>
<path d="M21.8064 10.8867H7.52637V12.2201H21.8064C21.9832 12.2201 22.1527 12.1498 22.2778 12.0248C22.4028 11.8998 22.473 11.7302 22.473 11.5534C22.473 11.3766 22.4028 11.207 22.2778 11.082C22.1527 10.957 21.9832 10.8867 21.8064 10.8867Z" fill="white"/>
<path d="M21.8064 16.2202H7.52637V17.5535H21.8064C21.9832 17.5535 22.1527 17.4833 22.2778 17.3583C22.4028 17.2333 22.473 17.0637 22.473 16.8869C22.473 16.7101 22.4028 16.5405 22.2778 16.4155C22.1527 16.2905 21.9832 16.2202 21.8064 16.2202Z" fill="white"/>
</svg>
