<svg width="24" height="24" viewBox="0 0 24 24" fill="none" xmlns="http://www.w3.org/2000/svg">
<path fill-rule="evenodd" clip-rule="evenodd" d="M7.80252 4.1439C7.72118 4.04308 7.57631 4.02109 7.46872 4.09323L6.13587 4.98693C5.01832 5.73627 4.60709 7.18422 5.16395 8.40911L5.68088 9.54618L5.68166 9.54788C7.52018 13.5522 10.7917 16.7359 14.859 18.4618L14.8713 18.467L15.5508 18.7699C16.7725 19.3142 18.2086 18.9007 18.9537 17.7901L19.8418 16.4664C19.914 16.3588 19.892 16.2139 19.7911 16.1325L16.7793 13.7027C16.6687 13.6135 16.5061 13.6343 16.4215 13.7485L15.4897 15.0057C15.2739 15.297 14.8805 15.3922 14.5554 15.2318C12.0166 13.9794 9.9557 11.9186 8.70335 9.37975C8.54295 9.0546 8.63812 8.66126 8.92941 8.44539L10.1867 7.51367C10.3008 7.42906 10.3216 7.26644 10.2324 7.15584L7.80252 4.1439ZM8.96997 3.20206L11.3998 6.21401C12.0244 6.98818 11.8789 8.12657 11.0798 8.71881L10.3396 9.26736C11.3592 11.0765 12.8586 12.5759 14.6678 13.5956L15.2163 12.8554C15.8086 12.0562 16.947 11.9107 17.7211 12.5353L20.733 14.9651C21.4389 15.5345 21.5927 16.5489 21.0874 17.3021L20.1993 18.6258C19.0478 20.3422 16.8284 20.9813 14.9404 20.1401L14.2668 19.84C9.85787 17.9673 6.31181 14.5152 4.31847 10.1738L4.31652 10.1695L3.79844 9.0299C2.93784 7.13689 3.57337 4.89915 5.3005 3.74107L6.63334 2.84737C7.38648 2.34238 8.40062 2.49632 8.96997 3.20206Z" fill="white"/>
</svg>
