<svg width="18" height="18" viewBox="0 0 18 18" fill="none" xmlns="http://www.w3.org/2000/svg">
<path d="M4.9387 16.4925C4.73018 16.4925 4.5738 16.4379 4.41741 16.3289C4.15677 16.1108 4.00038 15.7837 4.05251 15.4021L4.73018 11.1497L1.75886 8.1512C1.49821 7.87861 1.44609 7.49698 1.55034 7.16987C1.6546 6.84277 1.91524 6.57018 2.28014 6.51566L6.34617 5.91596L8.17067 2.04518C8.32705 1.71807 8.63982 1.5 9.00472 1.5C9.36962 1.5 9.68239 1.71807 9.83878 2.04518L11.6633 5.91596L15.7293 6.51566C16.0942 6.57018 16.3548 6.84277 16.4591 7.16987C16.5634 7.49698 16.4591 7.87861 16.2506 8.1512L13.2793 11.1497L13.9569 15.4021C14.0091 15.7837 13.8527 16.1108 13.592 16.3289C13.3314 16.547 12.9665 16.547 12.6537 16.3834L9.00472 14.3663L5.35573 16.3834C5.25147 16.4925 5.09508 16.4925 4.9387 16.4925ZM9.00472 13.1669L12.9144 15.2931L12.1846 10.7681L15.3644 7.5515L10.9856 6.89728L9.00472 2.75391L7.07597 6.89728L2.69717 7.5515L5.87701 10.7681L5.14721 15.2931L9.00472 13.1669Z" fill="black" fill-opacity="0.6"/>
</svg>
